<svg id="svg2" height="139.02" width="145.73" version="1.1" xmlns="http://www.w3.org/2000/svg"><style id="style2717">g{fill:#000} @media (prefers-color-scheme:dark){g{ fill:#fff}}</style><g id="layer1" transform="translate(-277.134 -462.85)"><path id="path3009" fill-rule="evenodd" d="M349.64 551.11a2.28 2.28 0 0 1 2.277 2.291v11.532c0 1.26-1.016 2.297-2.277 2.297l-.026-.014v.014h-11.511v-.014l-.025.014a2.291 2.291 0 0 1-2.283-2.297V553.4a2.281 2.281 0 0 1 2.283-2.291h11.562m6.23-53.512c1.291 0 2.296 1.041 2.296 2.324v11.71c0 1.285-1.005 2.328-2.296 2.328h-11.73a2.32 2.32 0 0 1-2.32-2.329V499.922a2.317 2.317 0 0 1 2.32-2.324h11.73m48.271 32.13a6.039 6.039 0 0 1-6.037 6.043H372.2v-7.79H394.038a2.324 2.324 0 0 0 2.324-2.326v-25.732a2.321 2.321 0 0 0-2.324-2.325H382.3a2.32 2.32 0 0 0-2.307 2.325v11.708c0 1.285 1.037 2.329 2.307 2.329h9.37v7.786H378.24c-3.34 0-6.041-2.7-6.041-6.037v-19.86a6.04 6.04 0 0 1 6.041-6.04h19.862a6.046 6.046 0 0 1 6.038 6.04v33.879zm-.022 45.174h-7.677v-23.791H391.05a2.279 2.279 0 0 0-2.283 2.291v21.5h-7.675v-23.79h-5.396a2.28 2.28 0 0 0-2.285 2.29v21.521h-7.674v-25.549c0-3.271 2.659-5.936 5.953-5.936h32.429v31.465zm-44.185-53.155h-19.87a6.033 6.033 0 0 1-6.033-6.037v-19.86c0-3.333 2.7-6.04 6.034-6.04h19.869a6.043 6.043 0 0 1 6.035 6.04v19.86a6.038 6.038 0 0 1-6.035 6.037m-.343 47.206a5.95 5.95 0 0 1-5.949 5.949h-19.569a5.946 5.946 0 0 1-5.954-5.949v-19.58c0-3.271 2.658-5.936 5.954-5.936h19.57c3.283 0 5.948 2.665 5.948 5.936v19.58zm-31.79-39.225a6.038 6.038 0 0 1-6.042 6.043h-25.9v-7.79h21.837a2.32 2.32 0 0 0 2.316-2.326v-25.732a2.317 2.317 0 0 0-2.316-2.325H305.96a2.317 2.317 0 0 0-2.314 2.325v11.708a2.32 2.32 0 0 0 2.314 2.329H315.336v7.786h-13.439a6.033 6.033 0 0 1-6.037-6.037v-19.86a6.038 6.038 0 0 1 6.037-6.04h19.861a6.045 6.045 0 0 1 6.043 6.04v33.879zm-5.826 21.382h-16.136a2.281 2.281 0 0 0-2.284 2.291l.005.016h-.005v11.515h.005l-.005.006c0 1.263 1.016 2.3 2.284 2.3h16.137v7.683h-20.14v-.02a5.952 5.952 0 0 1-5.957-5.949v-19.58c0-3.271 2.665-5.936 5.958-5.936h20.139v7.674z"/></g></svg>